<svg width="79" height="48" viewBox="0 0 79 48" fill="none" xmlns="http://www.w3.org/2000/svg">
<path d="M73.1962 16.2494L62.8342 5.8874C62.8278 5.881 62.8209 5.87509 62.8145 5.86868C62.8081 5.86228 62.8004 5.85366 62.793 5.84627C59.7692 2.82277 55.7828 0.952319 51.5248 0.559008C47.2668 0.165696 43.0056 1.27431 39.4789 3.69276C35.9523 1.27431 31.691 0.165696 27.433 0.559008C23.1749 0.952319 19.1887 2.82277 16.1648 5.84627L5.8028 16.208C2.57439 19.4373 0.66845 23.7559 0.458582 28.3172C0.248714 32.8786 1.75004 37.3541 4.66829 40.8662C7.58656 44.3781 11.7113 46.6737 16.234 47.3026C20.7567 47.9316 25.3514 46.8488 29.1172 44.2663C32.1663 46.3572 35.7767 47.4767 39.4737 47.478C43.171 47.4789 46.7819 46.3614 49.8323 44.2722C53.5936 46.8707 58.1907 47.9685 62.7204 47.3504C67.25 46.732 71.3847 44.4426 74.3124 40.9312C77.2399 37.4198 78.7485 32.9407 78.5421 28.3738C78.3355 23.8068 76.4288 19.4821 73.1962 16.2494ZM23.4904 39.0774C21.1512 40.1947 18.4924 40.4488 15.9838 39.7952C13.4753 39.1419 11.2785 37.6225 9.78177 35.5059C8.28504 33.3894 7.58469 30.812 7.80452 28.229C8.02433 25.6461 9.15017 23.2239 10.9831 21.3907L21.3448 11.0287C22.9531 9.42256 25.0192 8.35361 27.2594 7.96874C29.4996 7.58386 31.8041 7.9019 33.8561 8.87917L26.5265 16.208C23.7157 19.0043 21.8961 22.6427 21.3448 26.569C21.2234 27.4275 21.1622 28.2933 21.1616 29.1604C21.1543 32.588 22.1155 35.948 23.9344 38.8533C23.7877 38.9316 23.6397 39.0067 23.4904 39.0774ZM47.2503 36.9325C45.1869 38.9823 42.3951 40.1304 39.4865 40.1257C36.578 40.1208 33.7901 38.9631 31.7334 36.9066C29.6769 34.8499 28.5192 32.062 28.5143 29.1535C28.5096 26.245 29.6577 23.4532 31.7075 21.3898L39.4789 13.6184L47.2503 21.3898C49.3078 23.4524 50.4632 26.2469 50.4632 29.1604C50.4632 32.0736 49.3078 34.8681 47.2503 36.9308V36.9325ZM68.0152 36.9736C66.3992 38.5854 64.3223 39.6549 62.0717 40.0344C59.8212 40.4138 57.5084 40.0843 55.4533 39.0914C55.3056 39.0203 55.1593 38.9457 55.0148 38.8676C56.8393 35.959 57.8036 32.5937 57.7962 29.1604C57.7955 28.2933 57.7344 27.4275 57.613 26.569C57.0619 22.6427 55.2421 19.0043 52.4313 16.208L45.1465 8.9235L45.1054 8.88237C47.1565 7.90555 49.4597 7.58729 51.6989 7.97125C53.9381 8.35524 56.0035 9.42264 57.612 11.027C57.6194 11.0344 57.6263 11.0423 57.6335 11.0497C57.6406 11.0571 57.6468 11.062 57.6532 11.0684L67.9666 21.3819L68.0159 21.4311C70.0768 23.4923 71.2347 26.2878 71.2347 29.2025C71.2347 32.1172 70.0761 34.9125 68.0152 36.9736Z" fill="#FF724C"/>
</svg>
